<svg xmlns="http://www.w3.org/2000/svg" enable-background="new 0 0 512 512" viewBox="0 0 512 512" id="documents">
  <path fill="#fedb41" d="M357.52,396.6v50.27c0,16.569-13.431,30-30,30l0,0H94.48c-16.569,0-30-13.431-30-30
			l0,0V135.4c0-16.569,13.431-30,30-30h70v261.2c0,16.569,13.431,30,30,30l0,0H357.52z"></path>
  <path fill="#00acea" d="M447.52,124.8v251.8c0,16.569-13.431,30-30,30H184.48c-16.569,0-30-13.431-30-30
			V65.13c0-16.569,13.431-30,30-30h176l1,1.03l-1,0.97v71.37c0,9.002,7.298,16.3,16.3,16.3h68.74l1.03-1L447.52,124.8z"></path>
  <path fill="#fedb41" d="M446.55,123.8l-1.03,1h-68.74c-9.002,0-16.3-7.298-16.3-16.3V37.13l1-0.97
			L446.55,123.8z"></path>
  <path fill="#00efd1" d="M392.3 248.31H204.68c-5.523 0-10-4.477-10-10s4.477-10 10-10H392.3c5.523 0 10 4.477 10 10S397.823 248.31 392.3 248.31zM317 192.37H204.68c-5.523 0-10-4.477-10-10s4.477-10 10-10H317c5.523 0 10 4.477 10 10S322.523 192.37 317 192.37zM392.3 308.31H204.68c-5.523 0-10-4.477-10-10s4.477-10 10-10H392.3c5.523 0 10 4.477 10 10S397.823 308.31 392.3 308.31z"></path>
</svg>
